# xmcd
#
# Track frame offsets:
#	150
#	21434
#	35613
#	49408
#	64980
#	85856
#	100658
#	117383
#	135644
#	155632
#	172907
#	192223
#
# Disc length: 2760 seconds
#
# Revision: 0
# Processed by: cddbd v1.5.2PL0 Copyright (c) Steve Scherf et al.
# Submitted via: EasyCDDAExtractor 10.0.2.1
#
DISCID=a40ac60c
DTITLE=John and Sandy Hagerman - Oh What A Beautiful Day
DYEAR=2007
DGENRE=Gospel
TTITLE0=Mama and Daddy's Prayer
TTITLE1=In The Twinkling Of An Eye
TTITLE2=Oh What A Beautiful Day
TTITLE3=Help Your Brother All You Can
TTITLE4=He'll Make A Way
TTITLE5=There's Nothing For Me Here
TTITLE6=Do You Know The One
TTITLE7=Sunday Morning Christian
TTITLE8=We'll Be Together
TTITLE9=Right Where They Belong
TTITLE10=Open The Book
TTITLE11=Gospel Train
EXTD=
EXTT0=
EXTT1=
EXTT2=
EXTT3=
EXTT4=
EXTT5=
EXTT6=
EXTT7=
EXTT8=
EXTT9=
EXTT10=
EXTT11=
PLAYORDER=
